<svg version="1.1" id="Capa_1" xmlns="http://www.w3.org/2000/svg" x="0" y="0" viewBox="0 0 512.001 512.001" xml:space="preserve"><path d="M497 411.148H150.5c-66.444 0-120.5-54.056-120.5-120.5s54.056-120.5 120.5-120.5h309.975l-42.692 42.87c-5.846 5.87-5.826 15.368.044 21.214 5.87 5.846 15.367 5.825 21.213-.044l66.292-66.568c4.02-2.691 6.669-7.271 6.669-12.472 0-.069-.009-.136-.01-.205a14.947 14.947 0 00-4.361-10.8l-68.589-68.875c-5.846-5.869-15.343-5.89-21.213-.044s-5.89 15.344-.044 21.214l43.529 43.71H150.5c-82.986 0-150.5 67.514-150.5 150.5s67.514 150.5 150.5 150.5H497c8.284 0 15-6.716 15-15s-6.716-15-15-15z"/></svg>