<svg version="1.1" id="Capa_1" xmlns="http://www.w3.org/2000/svg" x="0" y="0" viewBox="0 0 512 512" xml:space="preserve"><path d="M361.5 140.148H50.689l43.529-43.71c5.846-5.87 5.826-15.368-.044-21.214-5.871-5.847-15.368-5.826-21.213.044L4.372 144.143a14.946 14.946 0 00-4.361 10.8c-.002.069-.011.136-.011.205 0 5.201 2.649 9.781 6.669 12.472l66.292 66.568c5.847 5.87 15.343 5.889 21.213.044 5.87-5.846 5.89-15.344.044-21.214l-42.692-42.87H361.5c66.444 0 120.5 54.056 120.5 120.5s-54.056 120.5-120.5 120.5H15c-8.284 0-15 6.716-15 15s6.716 15 15 15h346.5c82.986 0 150.5-67.514 150.5-150.5s-67.514-150.5-150.5-150.5z"/></svg>